<?xml version="1.0" encoding="UTF-8" standalone="no"?>
<svg
   xmlns:dc="http://purl.org/dc/elements/1.1/"
   xmlns:cc="http://creativecommons.org/ns#"
   xmlns:rdf="http://www.w3.org/1999/02/22-rdf-syntax-ns#"
   xmlns:svg="http://www.w3.org/2000/svg"
   xmlns="http://www.w3.org/2000/svg"
   width="18.729124mm"
   height="17.195505mm"
   viewBox="0 0 18.729124 17.195505"
   version="1.1"
   id="svg8">
  <defs
     id="defs2" />
  <metadata
     id="metadata5">
    <rdf:RDF>
      <cc:Work
         rdf:about="">
        <dc:format>image/svg+xml</dc:format>
        <dc:type
           rdf:resource="http://purl.org/dc/dcmitype/StillImage" />
        <dc:title></dc:title>
      </cc:Work>
    </rdf:RDF>
  </metadata>
  <g
     id="layer1">
    <g
       id="g254">
      <path
         style="stroke-width:0.203213"
         d="M 9.2371325,0.08278862 C 8.4559493,-0.04959201 7.6130286,-0.0455068 6.8662169,0.26068444 6.5111367,0.40620747 6.1736379,0.59451558 5.8465603,0.79511916 4.8856808,1.3848835 3.9524123,2.0182998 3.0053398,2.629935 2.140906,3.4793193 1.7010498,3.8176142 1.0376142,4.8516598 0.76779229,5.2722966 0.50286264,5.7062452 0.340659,6.1789136 0.02919088,7.0864373 -0.09671819,8.5603999 0.08180236,9.4987221 0.1988266,10.113845 0.49053428,10.682396 0.69489825,11.274233 c 0.34834655,0.546939 0.64300055,1.13206 1.04504275,1.640798 1.1693207,1.479712 2.755477,2.557937 4.4547297,3.334475 1.0436588,0.477023 1.6815947,0.629889 2.7481615,0.945995 0,0 1.6864338,-1.155496 1.6864338,-1.155496 v 0 C 9.5424329,15.746059 8.9311684,15.619568 7.8659846,15.153057 6.1839555,14.416335 4.6054814,13.369695 3.4534551,11.915999 3.0606435,11.420383 2.7766389,10.847468 2.4382314,10.313153 2.2479374,9.73679 1.9716679,9.1819591 1.8673526,8.5840144 1.7712805,8.0333683 1.7885579,7.4634421 1.844037,6.9072063 1.8968757,6.3776938 2.0052941,5.8477329 2.1900172,5.3486003 2.6935578,3.9881666 3.8491343,2.8217903 4.9014576,1.8767325 4.6810219,1.9475759 4.0859218,2.2628244 4.2401543,2.0900002 4.4863797,1.8141292 4.8658247,1.6910249 5.2028851,1.5390054 5.9054431,1.2221727 6.7239103,1.1776539 7.4709302,1.3121768 c 0,0 1.7662013,-1.22938818 1.7662003,-1.22938818 z"
         id="path28" />
      <path
         style="stroke-width:0.203213"
         d="M 4.7320242,13.16944 C 6.0473841,11.738521 6.8060787,9.9351915 7.4998803,8.1479434 7.9804999,6.8183083 8.2689106,5.4423508 8.5563148,4.0594286 c -0.089655,0.092465 0.00827,0.068651 0.017656,0.015344 -0.027441,0.1765706 0.032492,-0.036667 0.022469,-0.030888 C 7.9380487,4.4004537 7.4517327,4.5516562 6.8375836,4.9799751 6.7602038,5.0337803 6.6702167,5.154553 6.666821,5.248722 6.652174,5.6556484 6.6504104,6.171909 6.6465046,6.5675463 c -0.020307,1.6256034 0.140555,3.2434051 0.4232951,4.8423157 0.062065,0.264153 0.1770429,1.061306 0.4595988,1.22046 0.052769,0.02919 0.1161235,0.03408 0.1741852,0.05112 0.6802736,-0.396843 1.3775308,-0.765867 2.0408209,-1.190479 0.087284,-0.0558 0.4732744,-0.592465 0.4975734,-0.627837 0.382484,-0.556086 0.669689,-1.1076387 0.958025,-1.7173807 0.643473,-1.4714915 1.127176,-3.0053771 1.631885,-4.5280831 l -1.908369,0.8979185 v 0 c -0.485529,1.5191788 -0.9740321,3.043479 -1.6357539,4.4970453 -0.3008446,0.590631 -0.6050699,1.158635 -1.0046918,1.689891 -0.5532028,0.735516 -1.7783972,1.402989 1.1438011,-0.33153 -0.021612,0.03458 0.1048583,-0.129849 0.06906,-0.109882 -0.062982,0.03507 -0.246326,0.117505 -0.2781976,0.05251 C 9.077933,11.029469 9.0026446,10.720578 8.9410247,10.411567 8.6261788,8.8332419 8.4702216,7.2286623 8.5203381,5.6176261 8.5417805,5.0278518 8.5384226,4.8414667 8.5909325,4.2913787 8.5998004,4.1985149 8.6757852,3.9652197 8.5861498,3.9921921 6.7748956,4.5406161 6.7905509,4.2243215 6.6857763,5.0020153 6.4501765,6.3660858 6.1059719,7.7114939 5.6318886,9.0129511 4.9233454,10.804125 4.1338612,12.610514 2.7441346,13.98969 l 1.9875727,-0.820619 z"
         id="path30" />
      <path
         id="path30-3"
         d="m 10.629272,16.039895 c 1.315364,-1.430918 2.074059,-3.234228 2.767857,-5.021396 0.480623,-1.3296554 0.769033,-2.7056826 1.056436,-4.0885151 -0.08965,0.092366 0.0082,0.068651 0.01764,0.015344 -0.02744,0.1765606 0.03249,-0.036667 0.02247,-0.030888 -0.658388,0.3566784 -1.144704,0.5077812 -1.758852,0.9361102 -0.07738,0.053805 -0.167369,0.1745678 -0.170764,0.2688365 -0.01465,0.4068367 -0.01641,0.9231371 -0.02032,1.3187545 -0.02031,1.6256139 0.14056,3.2434749 0.423297,4.8422959 0.06207,0.264153 0.177046,1.061307 0.4596,1.22045 0.05277,0.02939 0.116123,0.03408 0.174185,0.05111 0.680273,-0.396803 1.377531,-0.765857 2.04082,-1.190469 0.08728,-0.0558 0.473275,-0.592504 0.497575,-0.627826 0.382482,-0.556037 0.669688,-1.107689 0.958026,-1.717362 0.643473,-1.471541 1.127173,-3.005387 1.631883,-4.5280631 l -1.90837,0.8978341 v 0 c -0.48553,1.5191689 -0.97403,3.043489 -1.635754,4.497036 -0.300843,0.590691 -0.605069,1.158654 -1.004692,1.68996 -0.553201,0.735487 -1.778397,1.40293 1.143802,-0.33152 -0.02161,0.03457 0.104858,-0.129909 0.06906,-0.109951 -0.06298,0.03507 -0.246328,0.117544 -0.278199,0.05251 -0.139805,-0.284131 -0.215092,-0.593002 -0.276713,-0.902003 -0.314845,-1.578305 -0.470805,-3.182944 -0.420686,-4.7939208 0.02144,-0.5898042 0.01808,-0.7762291 0.07059,-1.3262474 0.0089,-0.092963 0.08485,-0.3262287 -0.0048,-0.2991966 -1.811256,0.5484739 -1.795599,0.2321295 -1.900373,1.0097735 -0.235602,1.3640605 -0.579805,2.7095283 -1.053891,4.0109953 -0.708539,1.791124 -1.498026,3.597593 -2.8877532,4.976669 l 1.9875732,-0.820608 z"
         style="stroke-width:0.203213" />
    </g>
  </g>
</svg>
