<?xml version="1.0" encoding="UTF-8" standalone="no"?>
<svg
   xmlns:dc="http://purl.org/dc/elements/1.1/"
   xmlns:cc="http://creativecommons.org/ns#"
   xmlns:rdf="http://www.w3.org/1999/02/22-rdf-syntax-ns#"
   xmlns:svg="http://www.w3.org/2000/svg"
   xmlns="http://www.w3.org/2000/svg"
   width="119.0625mm"
   height="17.195505mm"
   viewBox="0 0 119.0625 17.195505"
   version="1.1"
   id="svg8">
  <defs
     id="defs2" />
  <metadata
     id="metadata5">
    <rdf:RDF>
      <cc:Work
         rdf:about="">
        <dc:format>image/svg+xml</dc:format>
        <dc:type
           rdf:resource="http://purl.org/dc/dcmitype/StillImage" />
        <dc:title></dc:title>
      </cc:Work>
    </rdf:RDF>
  </metadata>
  <g
     id="layer1">
    <g
       transform="matrix(0.99639191,0,0,0.99639191,-30.820389,-114.33411)"
       id="g62">
      <path
         style="stroke-width:0.203949"
         d="m 40.202576,114.83122 c -0.784012,-0.13286 -1.629985,-0.12876 -2.379501,0.17854 -0.356366,0.14605 -0.695087,0.33504 -1.023349,0.53637 -0.964359,0.5919 -1.901007,1.22761 -2.851509,1.84146 -0.867564,0.85246 -1.309013,1.19198 -1.974851,2.22977 -0.270799,0.42216 -0.536688,0.85768 -0.699479,1.33206 -0.312596,0.91081 -0.438961,2.39011 -0.259794,3.33183 0.117448,0.61735 0.410212,1.18796 0.615316,1.78194 0.349608,0.54892 0.645329,1.13616 1.048827,1.64674 1.173555,1.48507 2.765455,2.5672 4.470861,3.34655 1.047438,0.47875 1.687684,0.63217 2.758113,0.94942 0,0 1.692541,-1.15968 1.692541,-1.15968 v 0 c -1.090769,-0.29501 -1.704247,-0.42196 -2.773288,-0.89016 -1.68812,-0.73939 -3.27231,-1.78982 -4.428508,-3.24878 -0.394234,-0.49741 -0.679267,-1.0724 -1.0189,-1.60865 -0.190983,-0.57845 -0.468253,-1.13529 -0.572946,-1.7354 -0.09642,-0.55264 -0.07908,-1.12463 -0.0234,-1.68288 0.05303,-0.53143 0.161841,-1.06331 0.347233,-1.56425 0.505364,-1.36536 1.665125,-2.53596 2.721259,-3.48444 -0.221234,0.0711 -0.818489,0.38749 -0.663698,0.21404 0.247117,-0.27687 0.627936,-0.40042 0.966217,-0.55299 0.705102,-0.31798 1.526533,-0.36266 2.276258,-0.22765 0,0 1.772597,-1.23384 1.772596,-1.23384 z"
         id="path28" />
      <path
         style="stroke-width:0.203949"
         d="m 35.681154,127.96526 c 1.320123,-1.4361 2.081565,-3.24596 2.777879,-5.03968 0.48236,-1.33445 0.771815,-2.71539 1.06026,-4.10332 -0.08998,0.0928 0.0083,0.0689 0.01772,0.0154 -0.02754,0.17721 0.03261,-0.0368 0.02255,-0.031 -0.660775,0.35786 -1.148852,0.50961 -1.765225,0.93948 -0.07766,0.054 -0.167973,0.17521 -0.171381,0.26972 -0.0147,0.4084 -0.01647,0.92653 -0.02039,1.3236 -0.02038,1.63149 0.141064,3.25515 0.424828,4.85985 0.06229,0.26511 0.177684,1.06515 0.461263,1.22488 0.05296,0.0293 0.116544,0.0342 0.174816,0.0513 0.682737,-0.39828 1.382519,-0.76864 2.048211,-1.19479 0.0876,-0.056 0.474988,-0.59461 0.499375,-0.63011 0.383869,-0.5581 0.672114,-1.11165 0.961494,-1.7236 0.645803,-1.47682 1.131258,-3.01626 1.637795,-4.54448 l -1.91528,0.90117 v 0 c -0.487287,1.52468 -0.977559,3.0545 -1.641677,4.51333 -0.301934,0.59277 -0.607261,1.16283 -1.00833,1.69601 -0.555206,0.73818 -1.784837,1.40807 1.147943,-0.33273 -0.02169,0.0347 0.105238,-0.13032 0.06931,-0.11028 -0.06321,0.0352 -0.247218,0.11793 -0.279205,0.0527 -0.14031,-0.28517 -0.215871,-0.59518 -0.277714,-0.90531 -0.315986,-1.58404 -0.472508,-3.19443 -0.42221,-4.8113 0.02152,-0.59191 0.01815,-0.77897 0.07085,-1.33105 0.0089,-0.0932 0.08516,-0.32734 -0.0048,-0.30027 -1.817813,0.55041 -1.802101,0.23297 -1.907255,1.01348 -0.236453,1.36901 -0.581904,2.71929 -1.057704,4.02546 -0.711109,1.79766 -1.503452,3.61059 -2.898211,4.99476 l 1.99477,-0.82359 z"
         id="path30" />
      <g
         id="g95">
        <text
           xml:space="preserve"
           style="font-style:normal;font-weight:normal;font-size:10.5833px;line-height:0.35;font-family:sans-serif;fill:#000000;fill-opacity:1;stroke:none;stroke-width:0.264583"
           x="100.71565"
           y="127.32524"
           id="text12"><tspan
             x="100.71565"
             y="127.32524"
             style="font-style:normal;font-variant:normal;font-weight:bold;font-stretch:normal;font-size:10.5833px;font-family:'Liberation Sans';-inkscape-font-specification:'Liberation Sans Bold';text-align:center;text-anchor:middle;stroke-width:0.264583"
             id="tspan14">CyberNewsNetwork</tspan><tspan
             x="100.71565"
             y="131.02939"
             style="font-style:normal;font-variant:normal;font-weight:normal;font-stretch:normal;font-size:4.23333px;font-family:'Inconsolata Nerd Font';-inkscape-font-specification:'Inconsolata Nerd Font';text-align:center;text-anchor:middle;stroke-width:0.264583"
             id="tspan18" /></text>
        <text
           xml:space="preserve"
           style="font-style:normal;font-weight:normal;font-size:3.52778px;line-height:1.25;font-family:sans-serif;fill:#000000;fill-opacity:1;stroke:none;stroke-width:0.264583"
           x="62.579144"
           y="130.38475"
           id="text83"><tspan
             id="tspan81"
             x="62.579144"
             y="130.38475"
             style="font-size:3.52778px;stroke-width:0.264583">Totally not knocking off CNN since 2020</tspan></text>
      </g>
      <path
         id="path30-3"
         d="m 41.599757,130.84611 c 1.320127,-1.4361 2.081569,-3.24594 2.77788,-5.03958 0.482363,-1.33447 0.771817,-2.71548 1.060261,-4.10332 -0.08998,0.0927 0.0082,0.0689 0.0177,0.0154 -0.02754,0.1772 0.03261,-0.0368 0.02255,-0.031 -0.660772,0.35797 -1.148849,0.50962 -1.765221,0.9395 -0.07766,0.054 -0.167975,0.1752 -0.171382,0.26981 -0.0147,0.40831 -0.01647,0.92648 -0.02039,1.32353 -0.02038,1.6315 0.141069,3.25522 0.42483,4.85983 0.06229,0.26511 0.177687,1.06515 0.461264,1.22487 0.05296,0.0295 0.116544,0.0342 0.174816,0.0513 0.682736,-0.39824 1.382519,-0.76863 2.04821,-1.19478 0.0876,-0.056 0.474989,-0.59465 0.499377,-0.6301 0.383867,-0.55805 0.672113,-1.1117 0.961495,-1.72358 0.645803,-1.47687 1.131255,-3.01627 1.637792,-4.54446 l -1.915279,0.90108 v 0 c -0.487288,1.52467 -0.977557,3.05451 -1.641677,4.51332 -0.301933,0.59283 -0.60726,1.16285 -1.00833,1.69608 -0.555205,0.73815 -1.784837,1.40801 1.147943,-0.33272 -0.02169,0.0347 0.105238,-0.13038 0.06931,-0.11035 -0.06321,0.0352 -0.24722,0.11797 -0.279206,0.0527 -0.140311,-0.28516 -0.215871,-0.59515 -0.277715,-0.90527 -0.315985,-1.58402 -0.47251,-3.19447 -0.422209,-4.81128 0.02152,-0.59194 0.01815,-0.77904 0.07085,-1.33105 0.0089,-0.0933 0.08516,-0.32741 -0.0048,-0.30028 -1.817815,0.55046 -1.802101,0.23297 -1.907255,1.01343 -0.236455,1.369 -0.581904,2.71934 -1.057707,4.02552 -0.711105,1.79761 -1.50345,3.61062 -2.89821,4.99469 l 1.99477,-0.82358 z"
         style="stroke-width:0.203949" />
    </g>
  </g>
</svg>
